<mxfile host="app.diagrams.net" agent="Mozilla/5.0 (X11; Linux x86_64) AppleWebKit/537.36 (KHTML, like Gecko) Chrome/135.0.0.0 Safari/537.36" version="26.2.3">
  <diagram name="Page-1" id="CO2IsSB1Vs_7gXEJfWVv">
    <mxGraphModel dx="1590" dy="694" grid="1" gridSize="10" guides="1" tooltips="1" connect="1" arrows="1" fold="1" page="1" pageScale="1" pageWidth="850" pageHeight="1100" math="0" shadow="0">
      <root>
        <mxCell id="0" />
        <mxCell id="1" parent="0" />
        <mxCell id="8d1YXM327n86d5bFr1x5-23" style="edgeStyle=orthogonalEdgeStyle;rounded=0;orthogonalLoop=1;jettySize=auto;html=1;" edge="1" parent="1" source="8d1YXM327n86d5bFr1x5-1" target="8d1YXM327n86d5bFr1x5-2">
          <mxGeometry relative="1" as="geometry" />
        </mxCell>
        <mxCell id="8d1YXM327n86d5bFr1x5-24" style="edgeStyle=orthogonalEdgeStyle;rounded=0;orthogonalLoop=1;jettySize=auto;html=1;" edge="1" parent="1" source="8d1YXM327n86d5bFr1x5-1" target="8d1YXM327n86d5bFr1x5-3">
          <mxGeometry relative="1" as="geometry">
            <Array as="points">
              <mxPoint x="600" y="210" />
              <mxPoint x="740" y="210" />
            </Array>
          </mxGeometry>
        </mxCell>
        <mxCell id="8d1YXM327n86d5bFr1x5-25" style="edgeStyle=orthogonalEdgeStyle;rounded=0;orthogonalLoop=1;jettySize=auto;html=1;" edge="1" parent="1" source="8d1YXM327n86d5bFr1x5-1" target="8d1YXM327n86d5bFr1x5-4">
          <mxGeometry relative="1" as="geometry">
            <Array as="points">
              <mxPoint x="600" y="210" />
              <mxPoint x="950" y="210" />
            </Array>
          </mxGeometry>
        </mxCell>
        <mxCell id="8d1YXM327n86d5bFr1x5-26" style="edgeStyle=orthogonalEdgeStyle;rounded=0;orthogonalLoop=1;jettySize=auto;html=1;" edge="1" parent="1" source="8d1YXM327n86d5bFr1x5-1" target="8d1YXM327n86d5bFr1x5-5">
          <mxGeometry relative="1" as="geometry">
            <Array as="points">
              <mxPoint x="600" y="210" />
              <mxPoint x="1150" y="210" />
            </Array>
          </mxGeometry>
        </mxCell>
        <mxCell id="8d1YXM327n86d5bFr1x5-1" value="Đăng nhập" style="rounded=1;whiteSpace=wrap;html=1;" vertex="1" parent="1">
          <mxGeometry x="540" y="100" width="120" height="60" as="geometry" />
        </mxCell>
        <mxCell id="8d1YXM327n86d5bFr1x5-32" style="edgeStyle=orthogonalEdgeStyle;rounded=0;orthogonalLoop=1;jettySize=auto;html=1;" edge="1" parent="1" source="8d1YXM327n86d5bFr1x5-2" target="8d1YXM327n86d5bFr1x5-8">
          <mxGeometry relative="1" as="geometry">
            <Array as="points">
              <mxPoint x="410" y="300" />
              <mxPoint x="410" y="400" />
            </Array>
          </mxGeometry>
        </mxCell>
        <mxCell id="8d1YXM327n86d5bFr1x5-33" style="edgeStyle=orthogonalEdgeStyle;rounded=0;orthogonalLoop=1;jettySize=auto;html=1;" edge="1" parent="1" source="8d1YXM327n86d5bFr1x5-2" target="8d1YXM327n86d5bFr1x5-7">
          <mxGeometry relative="1" as="geometry">
            <Array as="points">
              <mxPoint x="410" y="300" />
              <mxPoint x="410" y="490" />
            </Array>
          </mxGeometry>
        </mxCell>
        <mxCell id="8d1YXM327n86d5bFr1x5-35" style="edgeStyle=orthogonalEdgeStyle;rounded=0;orthogonalLoop=1;jettySize=auto;html=1;" edge="1" parent="1" source="8d1YXM327n86d5bFr1x5-2" target="8d1YXM327n86d5bFr1x5-13">
          <mxGeometry relative="1" as="geometry">
            <Array as="points">
              <mxPoint x="410" y="300" />
              <mxPoint x="410" y="580" />
            </Array>
          </mxGeometry>
        </mxCell>
        <mxCell id="8d1YXM327n86d5bFr1x5-36" style="edgeStyle=orthogonalEdgeStyle;rounded=0;orthogonalLoop=1;jettySize=auto;html=1;" edge="1" parent="1" source="8d1YXM327n86d5bFr1x5-2" target="8d1YXM327n86d5bFr1x5-14">
          <mxGeometry relative="1" as="geometry">
            <Array as="points">
              <mxPoint x="410" y="300" />
              <mxPoint x="410" y="670" />
            </Array>
          </mxGeometry>
        </mxCell>
        <mxCell id="8d1YXM327n86d5bFr1x5-2" value="Quản lý giao dịch" style="rounded=1;whiteSpace=wrap;html=1;" vertex="1" parent="1">
          <mxGeometry x="440" y="270" width="120" height="60" as="geometry" />
        </mxCell>
        <mxCell id="8d1YXM327n86d5bFr1x5-38" style="edgeStyle=orthogonalEdgeStyle;rounded=0;orthogonalLoop=1;jettySize=auto;html=1;" edge="1" parent="1" source="8d1YXM327n86d5bFr1x5-3" target="8d1YXM327n86d5bFr1x5-16">
          <mxGeometry relative="1" as="geometry">
            <mxPoint x="660" y="370" as="targetPoint" />
            <Array as="points">
              <mxPoint x="650" y="300" />
              <mxPoint x="650" y="400" />
            </Array>
          </mxGeometry>
        </mxCell>
        <mxCell id="8d1YXM327n86d5bFr1x5-39" style="edgeStyle=orthogonalEdgeStyle;rounded=0;orthogonalLoop=1;jettySize=auto;html=1;" edge="1" parent="1" source="8d1YXM327n86d5bFr1x5-3" target="8d1YXM327n86d5bFr1x5-15">
          <mxGeometry relative="1" as="geometry">
            <Array as="points">
              <mxPoint x="650" y="300" />
              <mxPoint x="650" y="480" />
            </Array>
          </mxGeometry>
        </mxCell>
        <mxCell id="8d1YXM327n86d5bFr1x5-40" style="edgeStyle=orthogonalEdgeStyle;rounded=0;orthogonalLoop=1;jettySize=auto;html=1;" edge="1" parent="1" source="8d1YXM327n86d5bFr1x5-3" target="8d1YXM327n86d5bFr1x5-17">
          <mxGeometry relative="1" as="geometry">
            <Array as="points">
              <mxPoint x="650" y="300" />
              <mxPoint x="650" y="560" />
            </Array>
          </mxGeometry>
        </mxCell>
        <mxCell id="8d1YXM327n86d5bFr1x5-41" style="edgeStyle=orthogonalEdgeStyle;rounded=0;orthogonalLoop=1;jettySize=auto;html=1;" edge="1" parent="1" source="8d1YXM327n86d5bFr1x5-3" target="8d1YXM327n86d5bFr1x5-18">
          <mxGeometry relative="1" as="geometry">
            <Array as="points">
              <mxPoint x="650" y="300" />
              <mxPoint x="650" y="640" />
            </Array>
          </mxGeometry>
        </mxCell>
        <mxCell id="8d1YXM327n86d5bFr1x5-3" value="Quản lý danh mục" style="rounded=1;whiteSpace=wrap;html=1;" vertex="1" parent="1">
          <mxGeometry x="680" y="270" width="120" height="60" as="geometry" />
        </mxCell>
        <mxCell id="8d1YXM327n86d5bFr1x5-42" style="edgeStyle=orthogonalEdgeStyle;rounded=0;orthogonalLoop=1;jettySize=auto;html=1;" edge="1" parent="1" source="8d1YXM327n86d5bFr1x5-4" target="8d1YXM327n86d5bFr1x5-20">
          <mxGeometry relative="1" as="geometry">
            <Array as="points">
              <mxPoint x="870" y="300" />
              <mxPoint x="870" y="390" />
            </Array>
          </mxGeometry>
        </mxCell>
        <mxCell id="8d1YXM327n86d5bFr1x5-43" style="edgeStyle=orthogonalEdgeStyle;rounded=0;orthogonalLoop=1;jettySize=auto;html=1;" edge="1" parent="1" source="8d1YXM327n86d5bFr1x5-4" target="8d1YXM327n86d5bFr1x5-19">
          <mxGeometry relative="1" as="geometry">
            <Array as="points">
              <mxPoint x="870" y="300" />
              <mxPoint x="870" y="470" />
            </Array>
          </mxGeometry>
        </mxCell>
        <mxCell id="8d1YXM327n86d5bFr1x5-44" style="edgeStyle=orthogonalEdgeStyle;rounded=0;orthogonalLoop=1;jettySize=auto;html=1;" edge="1" parent="1" source="8d1YXM327n86d5bFr1x5-4" target="8d1YXM327n86d5bFr1x5-21">
          <mxGeometry relative="1" as="geometry">
            <Array as="points">
              <mxPoint x="870" y="300" />
              <mxPoint x="870" y="550" />
            </Array>
          </mxGeometry>
        </mxCell>
        <mxCell id="8d1YXM327n86d5bFr1x5-4" value="Báo cáo &amp;amp; thống kê" style="rounded=1;whiteSpace=wrap;html=1;" vertex="1" parent="1">
          <mxGeometry x="890" y="270" width="120" height="60" as="geometry" />
        </mxCell>
        <mxCell id="8d1YXM327n86d5bFr1x5-45" style="edgeStyle=orthogonalEdgeStyle;rounded=0;orthogonalLoop=1;jettySize=auto;html=1;" edge="1" parent="1" source="8d1YXM327n86d5bFr1x5-5" target="8d1YXM327n86d5bFr1x5-22">
          <mxGeometry relative="1" as="geometry">
            <Array as="points">
              <mxPoint x="1080" y="300" />
              <mxPoint x="1080" y="410" />
            </Array>
          </mxGeometry>
        </mxCell>
        <mxCell id="8d1YXM327n86d5bFr1x5-5" value="Quản lý tài khoản" style="rounded=1;whiteSpace=wrap;html=1;" vertex="1" parent="1">
          <mxGeometry x="1090" y="270" width="120" height="60" as="geometry" />
        </mxCell>
        <mxCell id="8d1YXM327n86d5bFr1x5-29" style="edgeStyle=orthogonalEdgeStyle;rounded=0;orthogonalLoop=1;jettySize=auto;html=1;" edge="1" parent="1" source="8d1YXM327n86d5bFr1x5-6" target="8d1YXM327n86d5bFr1x5-9">
          <mxGeometry relative="1" as="geometry">
            <Array as="points">
              <mxPoint x="190" y="310" />
              <mxPoint x="190" y="400" />
            </Array>
          </mxGeometry>
        </mxCell>
        <mxCell id="8d1YXM327n86d5bFr1x5-30" style="edgeStyle=orthogonalEdgeStyle;rounded=0;orthogonalLoop=1;jettySize=auto;html=1;" edge="1" parent="1" source="8d1YXM327n86d5bFr1x5-6" target="8d1YXM327n86d5bFr1x5-10">
          <mxGeometry relative="1" as="geometry">
            <Array as="points">
              <mxPoint x="190" y="310" />
              <mxPoint x="190" y="490" />
            </Array>
          </mxGeometry>
        </mxCell>
        <mxCell id="8d1YXM327n86d5bFr1x5-6" value="Trang chủ" style="rounded=1;whiteSpace=wrap;html=1;" vertex="1" parent="1">
          <mxGeometry x="210" y="280" width="120" height="60" as="geometry" />
        </mxCell>
        <mxCell id="8d1YXM327n86d5bFr1x5-7" value="Sửa giao dịch" style="rounded=1;whiteSpace=wrap;html=1;" vertex="1" parent="1">
          <mxGeometry x="470" y="460" width="120" height="60" as="geometry" />
        </mxCell>
        <mxCell id="8d1YXM327n86d5bFr1x5-8" value="Thêm giao dịch" style="rounded=1;whiteSpace=wrap;html=1;" vertex="1" parent="1">
          <mxGeometry x="470" y="370" width="120" height="60" as="geometry" />
        </mxCell>
        <mxCell id="8d1YXM327n86d5bFr1x5-9" value="Số dư" style="rounded=1;whiteSpace=wrap;html=1;" vertex="1" parent="1">
          <mxGeometry x="240" y="370" width="120" height="60" as="geometry" />
        </mxCell>
        <mxCell id="8d1YXM327n86d5bFr1x5-10" value="Tổng thu nhập" style="rounded=1;whiteSpace=wrap;html=1;" vertex="1" parent="1">
          <mxGeometry x="240" y="460" width="120" height="60" as="geometry" />
        </mxCell>
        <mxCell id="8d1YXM327n86d5bFr1x5-11" value="Đã chi tiêu" style="rounded=1;whiteSpace=wrap;html=1;" vertex="1" parent="1">
          <mxGeometry x="240" y="550" width="120" height="60" as="geometry" />
        </mxCell>
        <mxCell id="8d1YXM327n86d5bFr1x5-13" value="Xóa giao dịch" style="rounded=1;whiteSpace=wrap;html=1;" vertex="1" parent="1">
          <mxGeometry x="470" y="550" width="120" height="60" as="geometry" />
        </mxCell>
        <mxCell id="8d1YXM327n86d5bFr1x5-14" value="Tra cứu giao dịch" style="rounded=1;whiteSpace=wrap;html=1;" vertex="1" parent="1">
          <mxGeometry x="470" y="640" width="120" height="60" as="geometry" />
        </mxCell>
        <mxCell id="8d1YXM327n86d5bFr1x5-15" value="Sửa danh mục" style="rounded=1;whiteSpace=wrap;html=1;" vertex="1" parent="1">
          <mxGeometry x="720" y="450" width="120" height="60" as="geometry" />
        </mxCell>
        <mxCell id="8d1YXM327n86d5bFr1x5-16" value="Thêm danh mục" style="rounded=1;whiteSpace=wrap;html=1;" vertex="1" parent="1">
          <mxGeometry x="720" y="370" width="120" height="60" as="geometry" />
        </mxCell>
        <mxCell id="8d1YXM327n86d5bFr1x5-17" value="Xóa danh mục" style="rounded=1;whiteSpace=wrap;html=1;" vertex="1" parent="1">
          <mxGeometry x="720" y="530" width="120" height="60" as="geometry" />
        </mxCell>
        <mxCell id="8d1YXM327n86d5bFr1x5-18" value="Tra cứu danh mục" style="rounded=1;whiteSpace=wrap;html=1;" vertex="1" parent="1">
          <mxGeometry x="720" y="610" width="120" height="60" as="geometry" />
        </mxCell>
        <mxCell id="8d1YXM327n86d5bFr1x5-19" value="Báo cáo &amp;amp; thống kê&amp;nbsp;&lt;br&gt;theo thời gian" style="rounded=1;whiteSpace=wrap;html=1;" vertex="1" parent="1">
          <mxGeometry x="930" y="440" width="120" height="60" as="geometry" />
        </mxCell>
        <mxCell id="8d1YXM327n86d5bFr1x5-20" value="Báo cáo &amp;amp; thống kê&amp;nbsp;&lt;br&gt;theo danh mục" style="rounded=1;whiteSpace=wrap;html=1;" vertex="1" parent="1">
          <mxGeometry x="930" y="360" width="120" height="60" as="geometry" />
        </mxCell>
        <mxCell id="8d1YXM327n86d5bFr1x5-21" value="Báo cáo &amp;amp; thống kê&lt;br&gt;theo giao dịch" style="rounded=1;whiteSpace=wrap;html=1;" vertex="1" parent="1">
          <mxGeometry x="930" y="520" width="120" height="60" as="geometry" />
        </mxCell>
        <mxCell id="8d1YXM327n86d5bFr1x5-22" value="Đổi mât khẩu" style="rounded=1;whiteSpace=wrap;html=1;" vertex="1" parent="1">
          <mxGeometry x="1120" y="380" width="120" height="60" as="geometry" />
        </mxCell>
        <mxCell id="8d1YXM327n86d5bFr1x5-27" style="edgeStyle=orthogonalEdgeStyle;rounded=0;orthogonalLoop=1;jettySize=auto;html=1;" edge="1" parent="1" source="8d1YXM327n86d5bFr1x5-1" target="8d1YXM327n86d5bFr1x5-6">
          <mxGeometry relative="1" as="geometry">
            <mxPoint x="610" y="170" as="sourcePoint" />
            <mxPoint x="510" y="280" as="targetPoint" />
            <Array as="points">
              <mxPoint x="600" y="220" />
              <mxPoint x="270" y="220" />
            </Array>
          </mxGeometry>
        </mxCell>
        <mxCell id="8d1YXM327n86d5bFr1x5-31" style="edgeStyle=orthogonalEdgeStyle;rounded=0;orthogonalLoop=1;jettySize=auto;html=1;" edge="1" parent="1" source="8d1YXM327n86d5bFr1x5-6" target="8d1YXM327n86d5bFr1x5-11">
          <mxGeometry relative="1" as="geometry">
            <mxPoint x="220" y="320" as="sourcePoint" />
            <mxPoint x="250" y="500" as="targetPoint" />
            <Array as="points">
              <mxPoint x="190" y="310" />
              <mxPoint x="190" y="580" />
            </Array>
          </mxGeometry>
        </mxCell>
      </root>
    </mxGraphModel>
  </diagram>
</mxfile>
